<svg id="visual" viewBox="0 0 960 540" width="960" height="540" xmlns="http://www.w3.org/2000/svg" xmlns:xlink="http://www.w3.org/1999/xlink" version="1.1"><g fill="#f6ad72"><circle r="22" cx="161" cy="324"></circle><circle r="3" cx="535" cy="235"></circle><circle r="14" cx="350" cy="372"></circle><circle r="19" cx="390" cy="33"></circle><circle r="3" cx="580" cy="264"></circle><circle r="20" cx="633" cy="52"></circle><circle r="5" cx="899" cy="135"></circle><circle r="11" cx="786" cy="432"></circle><circle r="3" cx="417" cy="250"></circle><circle r="5" cx="27" cy="346"></circle><circle r="3" cx="851" cy="161"></circle><circle r="7" cx="556" cy="356"></circle><circle r="6" cx="899" cy="457"></circle><circle r="15" cx="430" cy="360"></circle><circle r="15" cx="104" cy="183"></circle><circle r="12" cx="236" cy="524"></circle><circle r="8" cx="90" cy="360"></circle><circle r="6" cx="239" cy="70"></circle><circle r="8" cx="216" cy="434"></circle><circle r="8" cx="141" cy="72"></circle><circle r="7" cx="71" cy="221"></circle><circle r="11" cx="286" cy="432"></circle><circle r="4" cx="70" cy="482"></circle><circle r="3" cx="112" cy="450"></circle><circle r="2" cx="245" cy="278"></circle><circle r="2" cx="917" cy="192"></circle><circle r="13" cx="715" cy="510"></circle><circle r="12" cx="44" cy="529"></circle><circle r="3" cx="782" cy="302"></circle><circle r="14" cx="640" cy="142"></circle><circle r="4" cx="5" cy="106"></circle><circle r="12" cx="312" cy="9"></circle><circle r="11" cx="498" cy="450"></circle><circle r="19" cx="678" cy="534"></circle><circle r="3" cx="510" cy="111"></circle><circle r="5" cx="369" cy="153"></circle><circle r="17" cx="467" cy="521"></circle><circle r="17" cx="719" cy="355"></circle><circle r="19" cx="771" cy="206"></circle><circle r="18" cx="2" cy="231"></circle></g></svg>