<svg id="visual" viewBox="0 0 960 540" width="960" height="540" xmlns="http://www.w3.org/2000/svg" xmlns:xlink="http://www.w3.org/1999/xlink" version="1.1"><g fill="none" stroke="#FFFFFF" stroke-width="1"><path d="M3.5 2L3.5 9L-3.5 9L-3.5 2L-9.6 -1.5L-6.1 -7.6L0 -4.1L6.1 -7.6L9.6 -1.5Z" transform="translate(345 101)"></path><path d="M0.3 0.2L0.3 0.7L-0.3 0.7L-0.3 0.2L-0.7 -0.1L-0.5 -0.6L0 -0.3L0.5 -0.6L0.7 -0.1Z" transform="translate(539 23)"></path><path d="M1.6 0.9L1.6 4.2L-1.6 4.2L-1.6 0.9L-4.4 -0.7L-2.8 -3.5L0 -1.9L2.8 -3.5L4.4 -0.7Z" transform="translate(538 514)"></path><path d="M1.6 0.9L1.6 4.2L-1.6 4.2L-1.6 0.9L-4.4 -0.7L-2.8 -3.5L0 -1.9L2.8 -3.5L4.4 -0.7Z" transform="translate(564 99)"></path><path d="M0.8 0.5L0.8 2.1L-0.8 2.1L-0.8 0.5L-2.2 -0.3L-1.4 -1.7L0 -0.9L1.4 -1.7L2.2 -0.3Z" transform="translate(81 49)"></path><path d="M0.8 0.5L0.8 2.1L-0.8 2.1L-0.8 0.5L-2.2 -0.3L-1.4 -1.7L0 -0.9L1.4 -1.7L2.2 -0.3Z" transform="translate(943 427)"></path><path d="M2.2 1.2L2.2 5.6L-2.2 5.6L-2.2 1.2L-5.9 -0.9L-3.7 -4.7L0 -2.5L3.7 -4.7L5.9 -0.9Z" transform="translate(118 461)"></path><path d="M1.6 0.9L1.6 4.2L-1.6 4.2L-1.6 0.9L-4.4 -0.7L-2.8 -3.5L0 -1.9L2.8 -3.5L4.4 -0.7Z" transform="translate(409 300)"></path><path d="M2.2 1.2L2.2 5.6L-2.2 5.6L-2.2 1.2L-5.9 -0.9L-3.7 -4.7L0 -2.5L3.7 -4.7L5.9 -0.9Z" transform="translate(468 37)"></path><path d="M1.1 0.6L1.1 2.8L-1.1 2.8L-1.1 0.6L-2.9 -0.5L-1.9 -2.3L0 -1.2L1.9 -2.3L2.9 -0.5Z" transform="translate(200 90)"></path><path d="M1.6 0.9L1.6 4.2L-1.6 4.2L-1.6 0.9L-4.4 -0.7L-2.8 -3.5L0 -1.9L2.8 -3.5L4.4 -0.7Z" transform="translate(679 212)"></path><path d="M1.9 1.1L1.9 4.9L-1.9 4.9L-1.9 1.1L-5.2 -0.8L-3.3 -4.1L0 -2.2L3.3 -4.1L5.2 -0.8Z" transform="translate(413 484)"></path><path d="M0.8 0.5L0.8 2.1L-0.8 2.1L-0.8 0.5L-2.2 -0.3L-1.4 -1.7L0 -0.9L1.4 -1.7L2.2 -0.3Z" transform="translate(770 147)"></path><path d="M1.9 1.1L1.9 4.9L-1.9 4.9L-1.9 1.1L-5.2 -0.8L-3.3 -4.1L0 -2.2L3.3 -4.1L5.2 -0.8Z" transform="translate(147 87)"></path><path d="M1.3 0.8L1.3 3.5L-1.3 3.5L-1.3 0.8L-3.7 -0.6L-2.3 -2.9L0 -1.6L2.3 -2.9L3.7 -0.6Z" transform="translate(927 481)"></path><path d="M3 1.7L3 7.7L-3 7.7L-3 1.7L-8.1 -1.3L-5.1 -6.4L0 -3.4L5.1 -6.4L8.1 -1.3Z" transform="translate(881 411)"></path><path d="M2.2 1.2L2.2 5.6L-2.2 5.6L-2.2 1.2L-5.9 -0.9L-3.7 -4.7L0 -2.5L3.7 -4.7L5.9 -0.9Z" transform="translate(570 431)"></path><path d="M1.9 1.1L1.9 4.9L-1.9 4.9L-1.9 1.1L-5.2 -0.8L-3.3 -4.1L0 -2.2L3.3 -4.1L5.2 -0.8Z" transform="translate(163 295)"></path><path d="M0.5 0.3L0.5 1.4L-0.5 1.4L-0.5 0.3L-1.5 -0.2L-0.9 -1.2L0 -0.6L0.9 -1.2L1.5 -0.2Z" transform="translate(889 343)"></path><path d="M3 1.7L3 7.7L-3 7.7L-3 1.7L-8.1 -1.3L-5.1 -6.4L0 -3.4L5.1 -6.4L8.1 -1.3Z" transform="translate(398 191)"></path><path d="M2.4 1.4L2.4 6.3L-2.4 6.3L-2.4 1.4L-6.6 -1L-4.2 -5.2L0 -2.8L4.2 -5.2L6.6 -1Z" transform="translate(295 317)"></path><path d="M2.4 1.4L2.4 6.3L-2.4 6.3L-2.4 1.4L-6.6 -1L-4.2 -5.2L0 -2.8L4.2 -5.2L6.6 -1Z" transform="translate(251 369)"></path><path d="M1.1 0.6L1.1 2.8L-1.1 2.8L-1.1 0.6L-2.9 -0.5L-1.9 -2.3L0 -1.2L1.9 -2.3L2.9 -0.5Z" transform="translate(212 458)"></path><path d="M0.8 0.5L0.8 2.1L-0.8 2.1L-0.8 0.5L-2.2 -0.3L-1.4 -1.7L0 -0.9L1.4 -1.7L2.2 -0.3Z" transform="translate(320 250)"></path><path d="M0.8 0.5L0.8 2.1L-0.8 2.1L-0.8 0.5L-2.2 -0.3L-1.4 -1.7L0 -0.9L1.4 -1.7L2.2 -0.3Z" transform="translate(596 238)"></path><path d="M0.8 0.5L0.8 2.1L-0.8 2.1L-0.8 0.5L-2.2 -0.3L-1.4 -1.7L0 -0.9L1.4 -1.7L2.2 -0.3Z" transform="translate(202 262)"></path><path d="M1.1 0.6L1.1 2.8L-1.1 2.8L-1.1 0.6L-2.9 -0.5L-1.9 -2.3L0 -1.2L1.9 -2.3L2.9 -0.5Z" transform="translate(171 206)"></path><path d="M1.6 0.9L1.6 4.2L-1.6 4.2L-1.6 0.9L-4.4 -0.7L-2.8 -3.5L0 -1.9L2.8 -3.5L4.4 -0.7Z" transform="translate(906 196)"></path><path d="M0 0L0 0L0 0L0 0L0 0L0 0L0 0L0 0L0 0Z" transform="translate(479 418)"></path><path d="M0.8 0.5L0.8 2.1L-0.8 2.1L-0.8 0.5L-2.2 -0.3L-1.4 -1.7L0 -0.9L1.4 -1.7L2.2 -0.3Z" transform="translate(942 307)"></path><path d="M1.3 0.8L1.3 3.5L-1.3 3.5L-1.3 0.8L-3.7 -0.6L-2.3 -2.9L0 -1.6L2.3 -2.9L3.7 -0.6Z" transform="translate(318 300)"></path><path d="M0.3 0.2L0.3 0.7L-0.3 0.7L-0.3 0.2L-0.7 -0.1L-0.5 -0.6L0 -0.3L0.5 -0.6L0.7 -0.1Z" transform="translate(153 270)"></path><path d="M3 1.7L3 7.7L-3 7.7L-3 1.7L-8.1 -1.3L-5.1 -6.4L0 -3.4L5.1 -6.4L8.1 -1.3Z" transform="translate(655 505)"></path><path d="M3 1.7L3 7.7L-3 7.7L-3 1.7L-8.1 -1.3L-5.1 -6.4L0 -3.4L5.1 -6.4L8.1 -1.3Z" transform="translate(682 392)"></path><path d="M0.8 0.5L0.8 2.1L-0.8 2.1L-0.8 0.5L-2.2 -0.3L-1.4 -1.7L0 -0.9L1.4 -1.7L2.2 -0.3Z" transform="translate(340 366)"></path><path d="M2.4 1.4L2.4 6.3L-2.4 6.3L-2.4 1.4L-6.6 -1L-4.2 -5.2L0 -2.8L4.2 -5.2L6.6 -1Z" transform="translate(744 360)"></path><path d="M1.6 0.9L1.6 4.2L-1.6 4.2L-1.6 0.9L-4.4 -0.7L-2.8 -3.5L0 -1.9L2.8 -3.5L4.4 -0.7Z" transform="translate(671 367)"></path><path d="M1.6 0.9L1.6 4.2L-1.6 4.2L-1.6 0.9L-4.4 -0.7L-2.8 -3.5L0 -1.9L2.8 -3.5L4.4 -0.7Z" transform="translate(376 32)"></path><path d="M2.2 1.2L2.2 5.6L-2.2 5.6L-2.2 1.2L-5.9 -0.9L-3.7 -4.7L0 -2.5L3.7 -4.7L5.9 -0.9Z" transform="translate(391 410)"></path><path d="M3 1.7L3 7.7L-3 7.7L-3 1.7L-8.1 -1.3L-5.1 -6.4L0 -3.4L5.1 -6.4L8.1 -1.3Z" transform="translate(852 202)"></path><path d="M2.2 1.2L2.2 5.6L-2.2 5.6L-2.2 1.2L-5.9 -0.9L-3.7 -4.7L0 -2.5L3.7 -4.7L5.9 -0.9Z" transform="translate(889 62)"></path><path d="M0.8 0.5L0.8 2.1L-0.8 2.1L-0.8 0.5L-2.2 -0.3L-1.4 -1.7L0 -0.9L1.4 -1.7L2.2 -0.3Z" transform="translate(675 44)"></path><path d="M1.6 0.9L1.6 4.2L-1.6 4.2L-1.6 0.9L-4.4 -0.7L-2.8 -3.5L0 -1.9L2.8 -3.5L4.4 -0.7Z" transform="translate(825 52)"></path><path d="M3 1.7L3 7.7L-3 7.7L-3 1.7L-8.1 -1.3L-5.1 -6.4L0 -3.4L5.1 -6.4L8.1 -1.3Z" transform="translate(732 411)"></path><path d="M0.5 0.3L0.5 1.4L-0.5 1.4L-0.5 0.3L-1.5 -0.2L-0.9 -1.2L0 -0.6L0.9 -1.2L1.5 -0.2Z" transform="translate(56 304)"></path><path d="M1.3 0.8L1.3 3.5L-1.3 3.5L-1.3 0.8L-3.7 -0.6L-2.3 -2.9L0 -1.6L2.3 -2.9L3.7 -0.6Z" transform="translate(93 229)"></path><path d="M3 1.7L3 7.7L-3 7.7L-3 1.7L-8.1 -1.3L-5.1 -6.4L0 -3.4L5.1 -6.4L8.1 -1.3Z" transform="translate(855 58)"></path><path d="M1.9 1.1L1.9 4.9L-1.9 4.9L-1.9 1.1L-5.2 -0.8L-3.3 -4.1L0 -2.2L3.3 -4.1L5.2 -0.8Z" transform="translate(38 73)"></path><path d="M2.7 1.6L2.7 7L-2.7 7L-2.7 1.6L-7.4 -1.1L-4.7 -5.8L0 -3.1L4.7 -5.8L7.4 -1.1Z" transform="translate(704 461)"></path><path d="M1.3 0.8L1.3 3.5L-1.3 3.5L-1.3 0.8L-3.7 -0.6L-2.3 -2.9L0 -1.6L2.3 -2.9L3.7 -0.6Z" transform="translate(221 523)"></path><path d="M0.8 0.5L0.8 2.1L-0.8 2.1L-0.8 0.5L-2.2 -0.3L-1.4 -1.7L0 -0.9L1.4 -1.7L2.2 -0.3Z" transform="translate(337 488)"></path><path d="M2.7 1.6L2.7 7L-2.7 7L-2.7 1.6L-7.4 -1.1L-4.7 -5.8L0 -3.1L4.7 -5.8L7.4 -1.1Z" transform="translate(282 68)"></path><path d="M0.3 0.2L0.3 0.7L-0.3 0.7L-0.3 0.2L-0.7 -0.1L-0.5 -0.6L0 -0.3L0.5 -0.6L0.7 -0.1Z" transform="translate(47 384)"></path><path d="M2.7 1.6L2.7 7L-2.7 7L-2.7 1.6L-7.4 -1.1L-4.7 -5.8L0 -3.1L4.7 -5.8L7.4 -1.1Z" transform="translate(325 65)"></path><path d="M1.1 0.6L1.1 2.8L-1.1 2.8L-1.1 0.6L-2.9 -0.5L-1.9 -2.3L0 -1.2L1.9 -2.3L2.9 -0.5Z" transform="translate(816 349)"></path><path d="M3 1.7L3 7.7L-3 7.7L-3 1.7L-8.1 -1.3L-5.1 -6.4L0 -3.4L5.1 -6.4L8.1 -1.3Z" transform="translate(123 143)"></path><path d="M2.2 1.2L2.2 5.6L-2.2 5.6L-2.2 1.2L-5.9 -0.9L-3.7 -4.7L0 -2.5L3.7 -4.7L5.9 -0.9Z" transform="translate(642 259)"></path><path d="M1.9 1.1L1.9 4.9L-1.9 4.9L-1.9 1.1L-5.2 -0.8L-3.3 -4.1L0 -2.2L3.3 -4.1L5.2 -0.8Z" transform="translate(349 244)"></path><path d="M1.6 0.9L1.6 4.2L-1.6 4.2L-1.6 0.9L-4.4 -0.7L-2.8 -3.5L0 -1.9L2.8 -3.5L4.4 -0.7Z" transform="translate(443 280)"></path><path d="M2.4 1.4L2.4 6.3L-2.4 6.3L-2.4 1.4L-6.6 -1L-4.2 -5.2L0 -2.8L4.2 -5.2L6.6 -1Z" transform="translate(447 518)"></path><path d="M1.6 0.9L1.6 4.2L-1.6 4.2L-1.6 0.9L-4.4 -0.7L-2.8 -3.5L0 -1.9L2.8 -3.5L4.4 -0.7Z" transform="translate(854 136)"></path><path d="M0.3 0.2L0.3 0.7L-0.3 0.7L-0.3 0.2L-0.7 -0.1L-0.5 -0.6L0 -0.3L0.5 -0.6L0.7 -0.1Z" transform="translate(882 94)"></path><path d="M2.4 1.4L2.4 6.3L-2.4 6.3L-2.4 1.4L-6.6 -1L-4.2 -5.2L0 -2.8L4.2 -5.2L6.6 -1Z" transform="translate(594 31)"></path><path d="M0.3 0.2L0.3 0.7L-0.3 0.7L-0.3 0.2L-0.7 -0.1L-0.5 -0.6L0 -0.3L0.5 -0.6L0.7 -0.1Z" transform="translate(32 158)"></path><path d="M0.8 0.5L0.8 2.1L-0.8 2.1L-0.8 0.5L-2.2 -0.3L-1.4 -1.7L0 -0.9L1.4 -1.7L2.2 -0.3Z" transform="translate(49 519)"></path><path d="M0.8 0.5L0.8 2.1L-0.8 2.1L-0.8 0.5L-2.2 -0.3L-1.4 -1.7L0 -0.9L1.4 -1.7L2.2 -0.3Z" transform="translate(534 471)"></path><path d="M2.2 1.2L2.2 5.6L-2.2 5.6L-2.2 1.2L-5.9 -0.9L-3.7 -4.7L0 -2.5L3.7 -4.7L5.9 -0.9Z" transform="translate(111 520)"></path><path d="M1.6 0.9L1.6 4.2L-1.6 4.2L-1.6 0.9L-4.4 -0.7L-2.8 -3.5L0 -1.9L2.8 -3.5L4.4 -0.7Z" transform="translate(694 260)"></path><path d="M2.4 1.4L2.4 6.3L-2.4 6.3L-2.4 1.4L-6.6 -1L-4.2 -5.2L0 -2.8L4.2 -5.2L6.6 -1Z" transform="translate(387 349)"></path><path d="M0 0L0 0L0 0L0 0L0 0L0 0L0 0L0 0L0 0Z" transform="translate(100 259)"></path><path d="M2.7 1.6L2.7 7L-2.7 7L-2.7 1.6L-7.4 -1.1L-4.7 -5.8L0 -3.1L4.7 -5.8L7.4 -1.1Z" transform="translate(109 46)"></path><path d="M0.5 0.3L0.5 1.4L-0.5 1.4L-0.5 0.3L-1.5 -0.2L-0.9 -1.2L0 -0.6L0.9 -1.2L1.5 -0.2Z" transform="translate(810 125)"></path><path d="M0.8 0.5L0.8 2.1L-0.8 2.1L-0.8 0.5L-2.2 -0.3L-1.4 -1.7L0 -0.9L1.4 -1.7L2.2 -0.3Z" transform="translate(669 425)"></path><path d="M1.9 1.1L1.9 4.9L-1.9 4.9L-1.9 1.1L-5.2 -0.8L-3.3 -4.1L0 -2.2L3.3 -4.1L5.2 -0.8Z" transform="translate(794 243)"></path><path d="M1.6 0.9L1.6 4.2L-1.6 4.2L-1.6 0.9L-4.4 -0.7L-2.8 -3.5L0 -1.9L2.8 -3.5L4.4 -0.7Z" transform="translate(636 446)"></path><path d="M0.8 0.5L0.8 2.1L-0.8 2.1L-0.8 0.5L-2.2 -0.3L-1.4 -1.7L0 -0.9L1.4 -1.7L2.2 -0.3Z" transform="translate(449 322)"></path><path d="M2.4 1.4L2.4 6.3L-2.4 6.3L-2.4 1.4L-6.6 -1L-4.2 -5.2L0 -2.8L4.2 -5.2L6.6 -1Z" transform="translate(275 494)"></path><path d="M1.6 0.9L1.6 4.2L-1.6 4.2L-1.6 0.9L-4.4 -0.7L-2.8 -3.5L0 -1.9L2.8 -3.5L4.4 -0.7Z" transform="translate(542 148)"></path><path d="M2.2 1.2L2.2 5.6L-2.2 5.6L-2.2 1.2L-5.9 -0.9L-3.7 -4.7L0 -2.5L3.7 -4.7L5.9 -0.9Z" transform="translate(412 80)"></path><path d="M0.3 0.2L0.3 0.7L-0.3 0.7L-0.3 0.2L-0.7 -0.1L-0.5 -0.6L0 -0.3L0.5 -0.6L0.7 -0.1Z" transform="translate(95 184)"></path><path d="M1.1 0.6L1.1 2.8L-1.1 2.8L-1.1 0.6L-2.9 -0.5L-1.9 -2.3L0 -1.2L1.9 -2.3L2.9 -0.5Z" transform="translate(192 526)"></path><path d="M1.3 0.8L1.3 3.5L-1.3 3.5L-1.3 0.8L-3.7 -0.6L-2.3 -2.9L0 -1.6L2.3 -2.9L3.7 -0.6Z" transform="translate(279 40)"></path><path d="M0.8 0.5L0.8 2.1L-0.8 2.1L-0.8 0.5L-2.2 -0.3L-1.4 -1.7L0 -0.9L1.4 -1.7L2.2 -0.3Z" transform="translate(23 410)"></path><path d="M0 0L0 0L0 0L0 0L0 0L0 0L0 0L0 0L0 0Z" transform="translate(373 170)"></path><path d="M0 0L0 0L0 0L0 0L0 0L0 0L0 0L0 0L0 0Z" transform="translate(210 304)"></path><path d="M2.2 1.2L2.2 5.6L-2.2 5.6L-2.2 1.2L-5.9 -0.9L-3.7 -4.7L0 -2.5L3.7 -4.7L5.9 -0.9Z" transform="translate(787 382)"></path><path d="M2.4 1.4L2.4 6.3L-2.4 6.3L-2.4 1.4L-6.6 -1L-4.2 -5.2L0 -2.8L4.2 -5.2L6.6 -1Z" transform="translate(135 32)"></path><path d="M0.8 0.5L0.8 2.1L-0.8 2.1L-0.8 0.5L-2.2 -0.3L-1.4 -1.7L0 -0.9L1.4 -1.7L2.2 -0.3Z" transform="translate(450 172)"></path><path d="M1.6 0.9L1.6 4.2L-1.6 4.2L-1.6 0.9L-4.4 -0.7L-2.8 -3.5L0 -1.9L2.8 -3.5L4.4 -0.7Z" transform="translate(313 142)"></path><path d="M1.1 0.6L1.1 2.8L-1.1 2.8L-1.1 0.6L-2.9 -0.5L-1.9 -2.3L0 -1.2L1.9 -2.3L2.9 -0.5Z" transform="translate(754 232)"></path><path d="M0.3 0.2L0.3 0.7L-0.3 0.7L-0.3 0.2L-0.7 -0.1L-0.5 -0.6L0 -0.3L0.5 -0.6L0.7 -0.1Z" transform="translate(629 143)"></path><path d="M0.5 0.3L0.5 1.4L-0.5 1.4L-0.5 0.3L-1.5 -0.2L-0.9 -1.2L0 -0.6L0.9 -1.2L1.5 -0.2Z" transform="translate(276 123)"></path><path d="M0.3 0.2L0.3 0.7L-0.3 0.7L-0.3 0.2L-0.7 -0.1L-0.5 -0.6L0 -0.3L0.5 -0.6L0.7 -0.1Z" transform="translate(501 214)"></path><path d="M2.7 1.6L2.7 7L-2.7 7L-2.7 1.6L-7.4 -1.1L-4.7 -5.8L0 -3.1L4.7 -5.8L7.4 -1.1Z" transform="translate(35 322)"></path><path d="M0 0L0 0L0 0L0 0L0 0L0 0L0 0L0 0L0 0Z" transform="translate(188 490)"></path><path d="M1.6 0.9L1.6 4.2L-1.6 4.2L-1.6 0.9L-4.4 -0.7L-2.8 -3.5L0 -1.9L2.8 -3.5L4.4 -0.7Z" transform="translate(273 221)"></path><path d="M2.2 1.2L2.2 5.6L-2.2 5.6L-2.2 1.2L-5.9 -0.9L-3.7 -4.7L0 -2.5L3.7 -4.7L5.9 -0.9Z" transform="translate(316 388)"></path><path d="M2.4 1.4L2.4 6.3L-2.4 6.3L-2.4 1.4L-6.6 -1L-4.2 -5.2L0 -2.8L4.2 -5.2L6.6 -1Z" transform="translate(358 517)"></path><path d="M1.6 0.9L1.6 4.2L-1.6 4.2L-1.6 0.9L-4.4 -0.7L-2.8 -3.5L0 -1.9L2.8 -3.5L4.4 -0.7Z" transform="translate(453 389)"></path><path d="M1.9 1.1L1.9 4.9L-1.9 4.9L-1.9 1.1L-5.2 -0.8L-3.3 -4.1L0 -2.2L3.3 -4.1L5.2 -0.8Z" transform="translate(802 513)"></path><path d="M0.5 0.3L0.5 1.4L-0.5 1.4L-0.5 0.3L-1.5 -0.2L-0.9 -1.2L0 -0.6L0.9 -1.2L1.5 -0.2Z" transform="translate(876 271)"></path><path d="M0.3 0.2L0.3 0.7L-0.3 0.7L-0.3 0.2L-0.7 -0.1L-0.5 -0.6L0 -0.3L0.5 -0.6L0.7 -0.1Z" transform="translate(41 220)"></path><path d="M2.2 1.2L2.2 5.6L-2.2 5.6L-2.2 1.2L-5.9 -0.9L-3.7 -4.7L0 -2.5L3.7 -4.7L5.9 -0.9Z" transform="translate(914 97)"></path><path d="M0.3 0.2L0.3 0.7L-0.3 0.7L-0.3 0.2L-0.7 -0.1L-0.5 -0.6L0 -0.3L0.5 -0.6L0.7 -0.1Z" transform="translate(580 333)"></path><path d="M0 0L0 0L0 0L0 0L0 0L0 0L0 0L0 0L0 0Z" transform="translate(482 171)"></path><path d="M2.7 1.6L2.7 7L-2.7 7L-2.7 1.6L-7.4 -1.1L-4.7 -5.8L0 -3.1L4.7 -5.8L7.4 -1.1Z" transform="translate(840 416)"></path><path d="M3 1.7L3 7.7L-3 7.7L-3 1.7L-8.1 -1.3L-5.1 -6.4L0 -3.4L5.1 -6.4L8.1 -1.3Z" transform="translate(607 470)"></path><path d="M0 0L0 0L0 0L0 0L0 0L0 0L0 0L0 0L0 0Z" transform="translate(560 52)"></path><path d="M1.9 1.1L1.9 4.9L-1.9 4.9L-1.9 1.1L-5.2 -0.8L-3.3 -4.1L0 -2.2L3.3 -4.1L5.2 -0.8Z" transform="translate(87 284)"></path><path d="M0.8 0.5L0.8 2.1L-0.8 2.1L-0.8 0.5L-2.2 -0.3L-1.4 -1.7L0 -0.9L1.4 -1.7L2.2 -0.3Z" transform="translate(571 281)"></path><path d="M3 1.7L3 7.7L-3 7.7L-3 1.7L-8.1 -1.3L-5.1 -6.4L0 -3.4L5.1 -6.4L8.1 -1.3Z" transform="translate(526 258)"></path><path d="M2.7 1.6L2.7 7L-2.7 7L-2.7 1.6L-7.4 -1.1L-4.7 -5.8L0 -3.1L4.7 -5.8L7.4 -1.1Z" transform="translate(906 224)"></path><path d="M3 1.7L3 7.7L-3 7.7L-3 1.7L-8.1 -1.3L-5.1 -6.4L0 -3.4L5.1 -6.4L8.1 -1.3Z" transform="translate(104 420)"></path><path d="M0.5 0.3L0.5 1.4L-0.5 1.4L-0.5 0.3L-1.5 -0.2L-0.9 -1.2L0 -0.6L0.9 -1.2L1.5 -0.2Z" transform="translate(841 269)"></path><path d="M0 0L0 0L0 0L0 0L0 0L0 0L0 0L0 0L0 0Z" transform="translate(337 274)"></path><path d="M0.5 0.3L0.5 1.4L-0.5 1.4L-0.5 0.3L-1.5 -0.2L-0.9 -1.2L0 -0.6L0.9 -1.2L1.5 -0.2Z" transform="translate(488 104)"></path><path d="M1.9 1.1L1.9 4.9L-1.9 4.9L-1.9 1.1L-5.2 -0.8L-3.3 -4.1L0 -2.2L3.3 -4.1L5.2 -0.8Z" transform="translate(654 151)"></path><path d="M1.3 0.8L1.3 3.5L-1.3 3.5L-1.3 0.8L-3.7 -0.6L-2.3 -2.9L0 -1.6L2.3 -2.9L3.7 -0.6Z" transform="translate(374 62)"></path><path d="M0.8 0.5L0.8 2.1L-0.8 2.1L-0.8 0.5L-2.2 -0.3L-1.4 -1.7L0 -0.9L1.4 -1.7L2.2 -0.3Z" transform="translate(380 496)"></path><path d="M1.1 0.6L1.1 2.8L-1.1 2.8L-1.1 0.6L-2.9 -0.5L-1.9 -2.3L0 -1.2L1.9 -2.3L2.9 -0.5Z" transform="translate(208 346)"></path><path d="M3 1.7L3 7.7L-3 7.7L-3 1.7L-8.1 -1.3L-5.1 -6.4L0 -3.4L5.1 -6.4L8.1 -1.3Z" transform="translate(169 62)"></path><path d="M2.7 1.6L2.7 7L-2.7 7L-2.7 1.6L-7.4 -1.1L-4.7 -5.8L0 -3.1L4.7 -5.8L7.4 -1.1Z" transform="translate(78 382)"></path><path d="M0.5 0.3L0.5 1.4L-0.5 1.4L-0.5 0.3L-1.5 -0.2L-0.9 -1.2L0 -0.6L0.9 -1.2L1.5 -0.2Z" transform="translate(380 125)"></path><path d="M1.6 0.9L1.6 4.2L-1.6 4.2L-1.6 0.9L-4.4 -0.7L-2.8 -3.5L0 -1.9L2.8 -3.5L4.4 -0.7Z" transform="translate(152 423)"></path><path d="M0.5 0.3L0.5 1.4L-0.5 1.4L-0.5 0.3L-1.5 -0.2L-0.9 -1.2L0 -0.6L0.9 -1.2L1.5 -0.2Z" transform="translate(584 76)"></path><path d="M1.3 0.8L1.3 3.5L-1.3 3.5L-1.3 0.8L-3.7 -0.6L-2.3 -2.9L0 -1.6L2.3 -2.9L3.7 -0.6Z" transform="translate(67 116)"></path><path d="M1.3 0.8L1.3 3.5L-1.3 3.5L-1.3 0.8L-3.7 -0.6L-2.3 -2.9L0 -1.6L2.3 -2.9L3.7 -0.6Z" transform="translate(241 157)"></path><path d="M2.4 1.4L2.4 6.3L-2.4 6.3L-2.4 1.4L-6.6 -1L-4.2 -5.2L0 -2.8L4.2 -5.2L6.6 -1Z" transform="translate(86 313)"></path><path d="M0 0L0 0L0 0L0 0L0 0L0 0L0 0L0 0L0 0Z" transform="translate(57 263)"></path><path d="M2.7 1.6L2.7 7L-2.7 7L-2.7 1.6L-7.4 -1.1L-4.7 -5.8L0 -3.1L4.7 -5.8L7.4 -1.1Z" transform="translate(321 171)"></path><path d="M1.1 0.6L1.1 2.8L-1.1 2.8L-1.1 0.6L-2.9 -0.5L-1.9 -2.3L0 -1.2L1.9 -2.3L2.9 -0.5Z" transform="translate(72 150)"></path><path d="M2.2 1.2L2.2 5.6L-2.2 5.6L-2.2 1.2L-5.9 -0.9L-3.7 -4.7L0 -2.5L3.7 -4.7L5.9 -0.9Z" transform="translate(869 309)"></path><path d="M0.8 0.5L0.8 2.1L-0.8 2.1L-0.8 0.5L-2.2 -0.3L-1.4 -1.7L0 -0.9L1.4 -1.7L2.2 -0.3Z" transform="translate(837 15)"></path><path d="M0.8 0.5L0.8 2.1L-0.8 2.1L-0.8 0.5L-2.2 -0.3L-1.4 -1.7L0 -0.9L1.4 -1.7L2.2 -0.3Z" transform="translate(795 435)"></path><path d="M2.2 1.2L2.2 5.6L-2.2 5.6L-2.2 1.2L-5.9 -0.9L-3.7 -4.7L0 -2.5L3.7 -4.7L5.9 -0.9Z" transform="translate(727 200)"></path><path d="M0.8 0.5L0.8 2.1L-0.8 2.1L-0.8 0.5L-2.2 -0.3L-1.4 -1.7L0 -0.9L1.4 -1.7L2.2 -0.3Z" transform="translate(378 312)"></path><path d="M1.6 0.9L1.6 4.2L-1.6 4.2L-1.6 0.9L-4.4 -0.7L-2.8 -3.5L0 -1.9L2.8 -3.5L4.4 -0.7Z" transform="translate(167 517)"></path><path d="M2.2 1.2L2.2 5.6L-2.2 5.6L-2.2 1.2L-5.9 -0.9L-3.7 -4.7L0 -2.5L3.7 -4.7L5.9 -0.9Z" transform="translate(764 37)"></path><path d="M2.7 1.6L2.7 7L-2.7 7L-2.7 1.6L-7.4 -1.1L-4.7 -5.8L0 -3.1L4.7 -5.8L7.4 -1.1Z" transform="translate(223 105)"></path><path d="M0.3 0.2L0.3 0.7L-0.3 0.7L-0.3 0.2L-0.7 -0.1L-0.5 -0.6L0 -0.3L0.5 -0.6L0.7 -0.1Z" transform="translate(180 334)"></path><path d="M1.9 1.1L1.9 4.9L-1.9 4.9L-1.9 1.1L-5.2 -0.8L-3.3 -4.1L0 -2.2L3.3 -4.1L5.2 -0.8Z" transform="translate(196 375)"></path><path d="M2.4 1.4L2.4 6.3L-2.4 6.3L-2.4 1.4L-6.6 -1L-4.2 -5.2L0 -2.8L4.2 -5.2L6.6 -1Z" transform="translate(724 301)"></path><path d="M1.1 0.6L1.1 2.8L-1.1 2.8L-1.1 0.6L-2.9 -0.5L-1.9 -2.3L0 -1.2L1.9 -2.3L2.9 -0.5Z" transform="translate(69 89)"></path><path d="M2.7 1.6L2.7 7L-2.7 7L-2.7 1.6L-7.4 -1.1L-4.7 -5.8L0 -3.1L4.7 -5.8L7.4 -1.1Z" transform="translate(39 431)"></path><path d="M2.7 1.6L2.7 7L-2.7 7L-2.7 1.6L-7.4 -1.1L-4.7 -5.8L0 -3.1L4.7 -5.8L7.4 -1.1Z" transform="translate(224 46)"></path><path d="M0.5 0.3L0.5 1.4L-0.5 1.4L-0.5 0.3L-1.5 -0.2L-0.9 -1.2L0 -0.6L0.9 -1.2L1.5 -0.2Z" transform="translate(751 468)"></path><path d="M0 0L0 0L0 0L0 0L0 0L0 0L0 0L0 0L0 0Z" transform="translate(156 182)"></path><path d="M0 0L0 0L0 0L0 0L0 0L0 0L0 0L0 0L0 0Z" transform="translate(834 169)"></path><path d="M1.3 0.8L1.3 3.5L-1.3 3.5L-1.3 0.8L-3.7 -0.6L-2.3 -2.9L0 -1.6L2.3 -2.9L3.7 -0.6Z" transform="translate(833 385)"></path><path d="M1.9 1.1L1.9 4.9L-1.9 4.9L-1.9 1.1L-5.2 -0.8L-3.3 -4.1L0 -2.2L3.3 -4.1L5.2 -0.8Z" transform="translate(781 211)"></path><path d="M0.8 0.5L0.8 2.1L-0.8 2.1L-0.8 0.5L-2.2 -0.3L-1.4 -1.7L0 -0.9L1.4 -1.7L2.2 -0.3Z" transform="translate(638 323)"></path><path d="M2.4 1.4L2.4 6.3L-2.4 6.3L-2.4 1.4L-6.6 -1L-4.2 -5.2L0 -2.8L4.2 -5.2L6.6 -1Z" transform="translate(357 424)"></path><path d="M0 0L0 0L0 0L0 0L0 0L0 0L0 0L0 0L0 0Z" transform="translate(740 16)"></path><path d="M0 0L0 0L0 0L0 0L0 0L0 0L0 0L0 0L0 0Z" transform="translate(237 299)"></path><path d="M0.5 0.3L0.5 1.4L-0.5 1.4L-0.5 0.3L-1.5 -0.2L-0.9 -1.2L0 -0.6L0.9 -1.2L1.5 -0.2Z" transform="translate(521 494)"></path><path d="M1.1 0.6L1.1 2.8L-1.1 2.8L-1.1 0.6L-2.9 -0.5L-1.9 -2.3L0 -1.2L1.9 -2.3L2.9 -0.5Z" transform="translate(240 480)"></path><path d="M0.8 0.5L0.8 2.1L-0.8 2.1L-0.8 0.5L-2.2 -0.3L-1.4 -1.7L0 -0.9L1.4 -1.7L2.2 -0.3Z" transform="translate(348 207)"></path><path d="M1.1 0.6L1.1 2.8L-1.1 2.8L-1.1 0.6L-2.9 -0.5L-1.9 -2.3L0 -1.2L1.9 -2.3L2.9 -0.5Z" transform="translate(38 22)"></path><path d="M0.8 0.5L0.8 2.1L-0.8 2.1L-0.8 0.5L-2.2 -0.3L-1.4 -1.7L0 -0.9L1.4 -1.7L2.2 -0.3Z" transform="translate(722 509)"></path><path d="M2.7 1.6L2.7 7L-2.7 7L-2.7 1.6L-7.4 -1.1L-4.7 -5.8L0 -3.1L4.7 -5.8L7.4 -1.1Z" transform="translate(439 434)"></path><path d="M2.2 1.2L2.2 5.6L-2.2 5.6L-2.2 1.2L-5.9 -0.9L-3.7 -4.7L0 -2.5L3.7 -4.7L5.9 -0.9Z" transform="translate(669 91)"></path><path d="M2.7 1.6L2.7 7L-2.7 7L-2.7 1.6L-7.4 -1.1L-4.7 -5.8L0 -3.1L4.7 -5.8L7.4 -1.1Z" transform="translate(546 222)"></path><path d="M2.7 1.6L2.7 7L-2.7 7L-2.7 1.6L-7.4 -1.1L-4.7 -5.8L0 -3.1L4.7 -5.8L7.4 -1.1Z" transform="translate(302 418)"></path><path d="M3 1.7L3 7.7L-3 7.7L-3 1.7L-8.1 -1.3L-5.1 -6.4L0 -3.4L5.1 -6.4L8.1 -1.3Z" transform="translate(606 378)"></path><path d="M1.1 0.6L1.1 2.8L-1.1 2.8L-1.1 0.6L-2.9 -0.5L-1.9 -2.3L0 -1.2L1.9 -2.3L2.9 -0.5Z" transform="translate(568 405)"></path><path d="M2.7 1.6L2.7 7L-2.7 7L-2.7 1.6L-7.4 -1.1L-4.7 -5.8L0 -3.1L4.7 -5.8L7.4 -1.1Z" transform="translate(92 359)"></path><path d="M2.4 1.4L2.4 6.3L-2.4 6.3L-2.4 1.4L-6.6 -1L-4.2 -5.2L0 -2.8L4.2 -5.2L6.6 -1Z" transform="translate(472 303)"></path><path d="M0.3 0.2L0.3 0.7L-0.3 0.7L-0.3 0.2L-0.7 -0.1L-0.5 -0.6L0 -0.3L0.5 -0.6L0.7 -0.1Z" transform="translate(67 429)"></path><path d="M1.9 1.1L1.9 4.9L-1.9 4.9L-1.9 1.1L-5.2 -0.8L-3.3 -4.1L0 -2.2L3.3 -4.1L5.2 -0.8Z" transform="translate(246 129)"></path><path d="M1.3 0.8L1.3 3.5L-1.3 3.5L-1.3 0.8L-3.7 -0.6L-2.3 -2.9L0 -1.6L2.3 -2.9L3.7 -0.6Z" transform="translate(517 114)"></path><path d="M3 1.7L3 7.7L-3 7.7L-3 1.7L-8.1 -1.3L-5.1 -6.4L0 -3.4L5.1 -6.4L8.1 -1.3Z" transform="translate(772 414)"></path><path d="M1.3 0.8L1.3 3.5L-1.3 3.5L-1.3 0.8L-3.7 -0.6L-2.3 -2.9L0 -1.6L2.3 -2.9L3.7 -0.6Z" transform="translate(623 412)"></path><path d="M3 1.7L3 7.7L-3 7.7L-3 1.7L-8.1 -1.3L-5.1 -6.4L0 -3.4L5.1 -6.4L8.1 -1.3Z" transform="translate(240 441)"></path><path d="M0.8 0.5L0.8 2.1L-0.8 2.1L-0.8 0.5L-2.2 -0.3L-1.4 -1.7L0 -0.9L1.4 -1.7L2.2 -0.3Z" transform="translate(915 64)"></path><path d="M3 1.7L3 7.7L-3 7.7L-3 1.7L-8.1 -1.3L-5.1 -6.4L0 -3.4L5.1 -6.4L8.1 -1.3Z" transform="translate(55 479)"></path><path d="M1.6 0.9L1.6 4.2L-1.6 4.2L-1.6 0.9L-4.4 -0.7L-2.8 -3.5L0 -1.9L2.8 -3.5L4.4 -0.7Z" transform="translate(618 521)"></path><path d="M3 1.7L3 7.7L-3 7.7L-3 1.7L-8.1 -1.3L-5.1 -6.4L0 -3.4L5.1 -6.4L8.1 -1.3Z" transform="translate(803 320)"></path><path d="M0.3 0.2L0.3 0.7L-0.3 0.7L-0.3 0.2L-0.7 -0.1L-0.5 -0.6L0 -0.3L0.5 -0.6L0.7 -0.1Z" transform="translate(173 98)"></path></g></svg>