<svg id="visual" viewBox="0 0 960 540" width="960" height="540" xmlns="http://www.w3.org/2000/svg" xmlns:xlink="http://www.w3.org/1999/xlink" version="1.1"><g fill="#FFFFFF"><circle r="13" cx="914" cy="150"></circle><circle r="1" cx="551" cy="460"></circle><circle r="3" cx="919" cy="335"></circle><circle r="8" cx="902" cy="113"></circle><circle r="3" cx="232" cy="23"></circle><circle r="11" cx="774" cy="385"></circle><circle r="10" cx="831" cy="385"></circle><circle r="6" cx="624" cy="95"></circle><circle r="4" cx="32" cy="393"></circle><circle r="2" cx="931" cy="170"></circle><circle r="3" cx="297" cy="164"></circle><circle r="2" cx="797" cy="102"></circle><circle r="5" cx="732" cy="339"></circle><circle r="3" cx="102" cy="308"></circle><circle r="6" cx="822" cy="487"></circle><circle r="8" cx="421" cy="336"></circle><circle r="5" cx="334" cy="134"></circle><circle r="4" cx="154" cy="510"></circle><circle r="4" cx="309" cy="446"></circle><circle r="8" cx="487" cy="133"></circle><circle r="0" cx="795" cy="334"></circle><circle r="4" cx="833" cy="521"></circle><circle r="11" cx="625" cy="372"></circle><circle r="11" cx="518" cy="265"></circle><circle r="0" cx="919" cy="514"></circle><circle r="1" cx="807" cy="53"></circle><circle r="4" cx="435" cy="84"></circle><circle r="2" cx="685" cy="191"></circle><circle r="9" cx="851" cy="200"></circle><circle r="9" cx="722" cy="255"></circle><circle r="6" cx="245" cy="196"></circle><circle r="7" cx="47" cy="139"></circle><circle r="8" cx="799" cy="166"></circle><circle r="1" cx="199" cy="234"></circle><circle r="3" cx="579" cy="335"></circle><circle r="0" cx="399" cy="208"></circle><circle r="10" cx="834" cy="24"></circle><circle r="0" cx="457" cy="106"></circle><circle r="2" cx="483" cy="265"></circle><circle r="7" cx="260" cy="95"></circle><circle r="9" cx="433" cy="204"></circle><circle r="9" cx="415" cy="256"></circle><circle r="4" cx="372" cy="227"></circle><circle r="1" cx="438" cy="316"></circle><circle r="4" cx="308" cy="362"></circle><circle r="11" cx="918" cy="303"></circle><circle r="10" cx="373" cy="269"></circle><circle r="1" cx="615" cy="60"></circle><circle r="10" cx="61" cy="265"></circle><circle r="7" cx="477" cy="33"></circle><circle r="1" cx="134" cy="333"></circle><circle r="10" cx="85" cy="104"></circle></g></svg>