<?xml version="1.0" encoding="UTF-8"?><svg id="Layer_1" xmlns="http://www.w3.org/2000/svg" viewBox="0 0 488.3 115.56"><defs><style>.cls-1{fill:#c8c8c8;}.cls-1,.cls-2,.cls-3,.cls-4,.cls-5,.cls-6,.cls-7,.cls-8,.cls-9,.cls-10{stroke-width:0px;}.cls-2{fill:#ef5350;}.cls-3{fill:none;}.cls-4{fill:#ffab40;}.cls-5{fill:#e53935;}.cls-6{fill:#d32f2f;}.cls-7{fill:#eee;}.cls-8{fill:#fdd835;}.cls-9{fill:#fff176;}.cls-10{fill:#ff9100;}</style></defs><path class="cls-3" d="m1.59,111.63S114.88,0,255.41,0"/><polyline class="cls-7" points="43.52 72.04 11.21 104.36 8.5 101.65 30.35 74.2 43.52 72.04"/><polyline class="cls-1" points="43.52 72.04 11.21 104.36 13.92 107.07 41.36 85.21"/><path class="cls-4" d="m1.51,108.34c-.35-.35-.91-.35-1.25,0-.35.35-.35.91,0,1.25l2.85,2.85,1.25-1.25-2.85-2.85Z"/><path class="cls-10" d="m7.22,114.05l-2.85-2.85-1.25,1.25,2.85,2.85c.35.35.91.35,1.25,0,.35-.35.35-.91,0-1.25Z"/><rect class="cls-2" x="4.47" y="104.32" width="2.75" height="6.93" transform="translate(77.92 27.44) rotate(45)"/><path class="cls-4" d="m11.21,104.36l-5.31-5.31c.04-.59-.15-1.2-.61-1.66-.83-.83-2.17-.83-3,0-.83.83-.83,2.17,0,3,.45.45,1.06.65,1.66.61l5.31,5.31,1.94-1.94Z"/><path class="cls-10" d="m18.17,110.27c-.45-.45-1.06-.65-1.66-.61l-5.31-5.31-1.94,1.94,5.31,5.31c-.04.59.15,1.2.61,1.66.83.83,2.17.83,3,0,.83-.83.83-2.17,0-3Z"/><path class="cls-8" d="m17.2,112.29c-.29.29-.76.29-1.05,0s-.29-.76,0-1.05c.29-.29.76-.29,1.05,0,.29.29.29.76,0,1.05Z"/><rect class="cls-5" x="6.41" y="106.26" width="2.75" height="6.93" transform="translate(79.86 26.63) rotate(45)"/><path class="cls-9" d="m4.32,99.42c-.29.29-.76.29-1.05,0s-.29-.76,0-1.05c.29-.29.76-.29,1.05,0s.29.76,0,1.05Z"/><rect class="cls-6" x="7.81" y="107.83" width="2.75" height=".99" transform="translate(79.28 25.23) rotate(45)"/><rect class="cls-6" x="6.41" y="109.22" width="2.75" height=".99" transform="translate(79.86 26.63) rotate(45)"/><rect class="cls-6" x="5.01" y="110.62" width="2.75" height=".99" transform="translate(80.44 28.03) rotate(45)"/><path class="cls-5" d="m7.54,106.37h.88v.99h-.88c-.27,0-.49-.22-.49-.49h0c0-.27.22-.49.49-.49Z" transform="translate(77.83 25.84) rotate(45)"/><path class="cls-5" d="m6.14,107.77h.88v.99h-.88c-.27,0-.49-.22-.49-.49h0c0-.27.22-.49.49-.49Z" transform="translate(78.41 27.23) rotate(45)"/><path class="cls-5" d="m4.74,109.17h.88v.99h-.88c-.27,0-.49-.22-.49-.49h0c0-.27.22-.49.49-.49Z" transform="translate(78.99 28.63) rotate(45)"/></svg>