<?xml version="1.0" encoding="UTF-8"?><svg id="Layer_1" xmlns="http://www.w3.org/2000/svg" viewBox="0 0 159.68 159.68"><defs><style>.cls-1{fill:#ef5451;}.cls-1,.cls-2,.cls-3,.cls-4,.cls-5,.cls-6,.cls-7,.cls-8,.cls-9{stroke-width:0px;}.cls-2{fill:#fdd837;}.cls-3{fill:#faaa43;}.cls-4{fill:#e53a35;}.cls-5{fill:#fff278;}.cls-6{fill:#c7c6c6;}.cls-7{fill:#d32e2e;}.cls-8{fill:#eee;}.cls-9{fill:#f7901e;}</style></defs><polygon class="cls-8" points="159.68 0 41.12 118.56 31.18 108.62 111.37 7.93 159.68 0"/><polygon class="cls-6" points="159.68 0 41.12 118.56 51.06 128.51 151.75 48.31 159.68 0"/><path class="cls-3" d="m5.54,133.19c-1.27-1.27-3.32-1.27-4.59,0-1.27,1.27-1.27,3.32,0,4.59l10.47,10.47,4.59-4.59-10.47-10.47Z"/><path class="cls-9" d="m26.49,154.14l-10.47-10.47-4.59,4.59,10.47,10.47c1.27,1.27,3.32,1.27,4.59,0,1.27-1.27,1.27-3.32,0-4.59Z"/><rect class="cls-1" x="16.4" y="118.41" width="10.07" height="25.41" transform="translate(99 23.25) rotate(45)"/><path class="cls-3" d="m41.11,118.57l-19.47-19.47c.16-2.18-.55-4.41-2.22-6.08-3.03-3.03-7.96-3.03-10.99,0-3.03,3.03-3.03,7.96,0,10.99,1.67,1.67,3.9,2.38,6.08,2.22l19.47,19.47,7.13-7.13Z"/><path class="cls-9" d="m66.66,140.26c-1.67-1.67-3.9-2.38-6.08-2.22l-19.47-19.47-7.13,7.13,19.47,19.47c-.16,2.18.55,4.41,2.22,6.08,3.03,3.03,7.96,3.03,10.99,0,3.03-3.03,3.03-7.96,0-10.99Z"/><path class="cls-2" d="m63.1,147.69c-1.07,1.07-2.8,1.07-3.87,0s-1.07-2.8,0-3.87c1.07-1.07,2.8-1.07,3.87,0,1.07,1.07,1.07,2.8,0,3.87Z"/><rect class="cls-4" x="23.53" y="125.54" width="10.07" height="25.41" transform="translate(106.12 20.29) rotate(45)"/><path class="cls-5" d="m15.86,100.45c-1.07,1.07-2.8,1.07-3.87,0s-1.07-2.8,0-3.87c1.07-1.07,2.8-1.07,3.87,0s1.07,2.8,0,3.87Z"/><rect class="cls-7" x="28.66" y="131.29" width="10.07" height="3.63" transform="translate(103.99 15.16) rotate(45)"/><rect class="cls-7" x="23.53" y="136.43" width="10.07" height="3.63" transform="translate(106.12 20.29) rotate(45)"/><rect class="cls-7" x="18.39" y="141.56" width="10.07" height="3.63" transform="translate(108.24 25.43) rotate(45)"/><path class="cls-4" d="m26.56,125.95h4.32v3.63h-4.32c-.4,0-.72-.32-.72-.72v-2.19c0-.4.32-.72.72-.72Z" transform="translate(98.65 17.37) rotate(45)"/><path class="cls-4" d="m21.42,131.09h4.32v3.63h-4.32c-.4,0-.72-.32-.72-.72v-2.19c0-.4.32-.72.72-.72Z" transform="translate(100.78 22.51) rotate(45)"/><path class="cls-4" d="m16.29,136.22h4.32v3.63h-4.32c-.4,0-.72-.32-.72-.72v-2.19c0-.4.32-.72.72-.72Z" transform="translate(102.9 27.64) rotate(45)"/></svg>