<?xml version="1.0" encoding="UTF-8"?><svg xmlns="http://www.w3.org/2000/svg" viewBox="0 0 39.24 230.23"><defs><style>.cls-1{fill:#a63617;}.cls-1,.cls-2,.cls-3,.cls-4,.cls-5,.cls-6,.cls-7,.cls-8,.cls-9{stroke-width:0px;}.cls-2{fill:#d66e3d;}.cls-10{isolation:isolate;}.cls-3,.cls-6,.cls-8{fill:#889dab;}.cls-4{fill:#fff;}.cls-5{fill:#bf522a;}.cls-6{mix-blend-mode:multiply;}.cls-6,.cls-8{opacity:.3;}.cls-7{fill:#2b4853;}.cls-8{mix-blend-mode:screen;}.cls-9{fill:#5d7985;}</style></defs><g class="cls-10"><g id="Layer_1"><rect class="cls-3" x="5.92" y="74.4" width="27.39" height="155.84"/><rect class="cls-6" x="-47.99" y="148.92" width="155.83" height="6.78" transform="translate(182.24 122.39) rotate(90)"/><path class="cls-7" d="m22.66,97.69v-12.88c0-2.68-1.22-5.02-3.04-6.28-1.82,1.25-3.04,3.59-3.04,6.28v12.88h6.08Z"/><path class="cls-7" d="m33.31,78.53v19.17h-3.03v-12.87c0-2.69,1.23-5.03,3.03-6.29Z"/><path class="cls-7" d="m5.92,78.53v19.17h3.03v-12.87c0-2.69-1.23-5.03-3.03-6.29Z"/><polygon class="cls-3" points="33.31 74.4 37.13 68.34 2.11 68.34 5.92 74.4 33.31 74.4"/><rect class="cls-3" x="12.91" y="44.12" width="13.41" height="35.01" transform="translate(81.25 42.01) rotate(90)"/><rect class="cls-7" x="16.14" y="58.79" width="6.95" height="5.05" transform="translate(-41.69 80.93) rotate(-90)"/><rect class="cls-7" x="19.3" y="37.74" width=".64" height="35.01" transform="translate(-35.62 74.86) rotate(-90)"/><rect class="cls-7" x="32.65" y="60.31" width="6.95" height="2" transform="translate(-25.18 97.44) rotate(-90)"/><rect class="cls-7" x="-.37" y="60.31" width="6.95" height="2" transform="translate(-58.2 64.42) rotate(-90)"/><rect class="cls-9" x="28.04" y="56.2" width="2.32" height="1.2"/><rect class="cls-9" x="8.88" y="56.2" width="2.32" height="1.2" transform="translate(20.08 113.59) rotate(180)"/><rect class="cls-9" x="26.88" y="58.09" width="2.32" height="1.2"/><rect class="cls-9" x="10.04" y="58.09" width="2.32" height="1.2" transform="translate(22.4 117.38) rotate(180)"/><rect class="cls-9" x="28.69" y="61.88" width="2.32" height="1.2"/><rect class="cls-9" x="8.23" y="61.88" width="2.32" height="1.2" transform="translate(18.77 124.95) rotate(180)"/><rect class="cls-9" x="29.77" y="59.87" width="2.32" height="1.2"/><rect class="cls-9" x="7.14" y="59.87" width="2.32" height="1.2" transform="translate(16.61 120.93) rotate(180)"/><rect class="cls-9" x="29.04" y="65.78" width="2.32" height="1.2"/><rect class="cls-9" x="7.88" y="65.78" width="2.32" height="1.2" transform="translate(18.07 132.75) rotate(180)"/><rect class="cls-9" x="30.47" y="63.81" width="2.32" height="1.2"/><rect class="cls-9" x="6.45" y="63.81" width="2.32" height="1.2" transform="translate(15.22 128.81) rotate(180)"/><rect class="cls-7" x="17.4" y="69.2" width="4.43" height="2.7" transform="translate(-50.93 90.17) rotate(-90)"/><polygon class="cls-7" points="25.99 68.34 25.36 72.77 22.66 72.77 23.29 68.34 25.99 68.34"/><polygon class="cls-7" points="13.25 68.34 13.88 72.77 16.58 72.77 15.95 68.34 13.25 68.34"/><polygon class="cls-7" points="34.14 68.34 32.39 72.77 29.69 72.77 31.44 68.34 34.14 68.34"/><polygon class="cls-7" points="5.1 68.34 6.84 72.77 9.55 72.77 7.8 68.34 5.1 68.34"/><polygon class="cls-5" points="19.62 10.28 20.74 9.66 19.62 6.81 18.5 9.66 19.62 10.28"/><path class="cls-5" d="m19.62,8.11c-.11,0-.2-.09-.2-.2V.2c0-.11.09-.2.2-.2s.2.09.2.2v7.7c0,.11-.09.2-.2.2Z"/><polygon class="cls-2" points="7.42 47.3 0 54.92 10.04 54.92 13.66 47.3 7.42 47.3"/><polygon class="cls-1" points="31.81 47.3 25.57 47.3 29.2 54.92 39.24 54.92 31.81 47.3"/><polygon class="cls-1" points="31.81 47.3 19.62 10.28 25.57 47.3 31.81 47.3"/><polygon class="cls-2" points="19.62 10.28 7.42 47.3 13.66 47.3 19.62 10.28"/><polygon class="cls-5" points="13.66 47.3 10.04 54.92 29.2 54.92 25.57 47.3 13.66 47.3"/><polygon class="cls-5" points="25.57 47.3 19.62 10.28 13.66 47.3 25.57 47.3"/><rect class="cls-8" x="-68.6" y="148.92" width="155.83" height="6.78" transform="translate(161.63 143) rotate(90)"/><polygon class="cls-8" points="2.11 68.34 5.92 74.4 12.57 74.4 10.61 68.34 2.11 68.34"/><polygon class="cls-6" points="28.63 68.34 26.67 74.4 33.31 74.4 37.13 68.34 28.63 68.34"/><path class="cls-4" d="m19.62,42.42c.94,0,1.7.76,1.7,1.7v3.18h-3.4v-3.18c0-.94.76-1.7,1.7-1.7Z"/><path class="cls-7" d="m31.81,44.13v3.18h-3.4v-3.18c0-.94.77-1.71,1.71-1.71.34,0,.65.1.92.27.47.31.77.84.77,1.44Z"/><path class="cls-7" d="m7.42,44.13v3.18h3.4v-3.18c0-.94-.77-1.71-1.71-1.71-.34,0-.65.1-.92.27-.47.31-.77.84-.77,1.44Z"/><path class="cls-3" d="m31.81,44.13v3.18h-1.55v-3.18c0-.6.31-1.13.77-1.44.47.31.77.84.77,1.44Z"/><path class="cls-3" d="m7.42,44.13v3.18h1.55v-3.18c0-.6-.31-1.13-.77-1.44-.47.31-.77.84-.77,1.44Z"/></g></g></svg>